HIERARCHY
ROOT Hips
{
  OFFSET 5.84602e-005 68.8428 3.50346
  CHANNELS 6 Xposition Yposition Zposition Zrotation Xrotation Yrotation
  JOINT Spine
  {
    OFFSET 0 8.597 -4.6522
    CHANNELS 3 Zrotation Xrotation Yrotation
    JOINT Spine1
    {
      OFFSET 0 7.8454 0.4098
      CHANNELS 3 Zrotation Xrotation Yrotation
      JOINT Spine2
      {
        OFFSET 0 9.7078 -2.1609
        CHANNELS 3 Zrotation Xrotation Yrotation
        JOINT Neck
        {
          OFFSET 0 21.8761 -0.4549
          CHANNELS 3 Zrotation Xrotation Yrotation
          JOINT Head
          {
            OFFSET 0 12.3537 3.3602
            CHANNELS 3 Zrotation Xrotation Yrotation
            End Site
            {
              OFFSET 0.0001 18.9506 0.5657
            }
          }
        }
        JOINT LeftShoulder
        {
          OFFSET 2.2086 21.1115 7.2329
          CHANNELS 3 Zrotation Xrotation Yrotation
          JOINT LeftArm
          {
            OFFSET 13.1193 3.0282 -4.8998
            CHANNELS 3 Zrotation Xrotation Yrotation
            JOINT LeftForeArm
            {
              OFFSET 27.4081 -0.0973053 -0.2375
              CHANNELS 3 Zrotation Xrotation Yrotation
              JOINT LeftHand
              {
                OFFSET 22.8641 0.0662994 -0.1369
                CHANNELS 3 Zrotation Xrotation Yrotation
                JOINT LeftHandIndex1
                {
                  OFFSET 8.8614 0.775009 2.4612
                  CHANNELS 3 Zrotation Xrotation Yrotation
                  JOINT LeftHandIndex2
                  {
                    OFFSET 3.3146 -0.808304 0.5841
                    CHANNELS 3 Zrotation Xrotation Yrotation
                    JOINT LeftHandIndex3
                    {
                      OFFSET 2.2628 -0.552002 0.3989
                      CHANNELS 3 Zrotation Xrotation Yrotation
                      End Site
                      {
                        OFFSET 1.6102 -0.4807 0.2612
                      }
                    }
                  }
                }
                JOINT LeftHandMiddle1
                {
                  OFFSET 8.9937 0.895004 0.2143
                  CHANNELS 3 Zrotation Xrotation Yrotation
                  JOINT LeftHandMiddle2
                  {
                    OFFSET 4.0984 0.0113983 -0.0242
                    CHANNELS 3 Zrotation Xrotation Yrotation
                    JOINT LeftHandMiddle3
                    {
                      OFFSET 2.2716 0.00689697 -0.0138001
                      CHANNELS 3 Zrotation Xrotation Yrotation
                      End Site
                      {
                        OFFSET 2.0404 -0.1441 0.0027
                      }
                    }
                  }
                }
                JOINT LeftHandRing1
                {
                  OFFSET 8.5234 0.597198 -2.0164
                  CHANNELS 3 Zrotation Xrotation Yrotation
                  JOINT LeftHandRing2
                  {
                    OFFSET 3.7188 -0.188293 -0.2328
                    CHANNELS 3 Zrotation Xrotation Yrotation
                    JOINT LeftHandRing3
                    {
                      OFFSET 2.1191 -0.106598 -0.1332
                      CHANNELS 3 Zrotation Xrotation Yrotation
                      End Site
                      {
                        OFFSET 1.8737 -0.2304 -0.0886
                      }
                    }
                  }
                }
                JOINT LeftHandPinky1
                {
                  OFFSET 7.9094 -0.601089 -3.4825
                  CHANNELS 3 Zrotation Xrotation Yrotation
                  JOINT LeftHandPinky2
                  {
                    OFFSET 2.2874 -0.477005 -0.6314
                    CHANNELS 3 Zrotation Xrotation Yrotation
                    JOINT LeftHandPinky3
                    {
                      OFFSET 1.6774 -0.349396 -0.4633
                      CHANNELS 3 Zrotation Xrotation Yrotation
                      End Site
                      {
                        OFFSET 1.4888 -0.4091 -0.3416
                      }
                    }
                  }
                }
                JOINT LeftHandThumb1
                {
                  OFFSET 1.833 -1.3875 1.3896
                  CHANNELS 3 Zrotation Xrotation Yrotation
                  JOINT LeftHandThumb2
                  {
                    OFFSET 3.4129 -1.121 2.5732
                    CHANNELS 3 Zrotation Xrotation Yrotation
                    JOINT LeftHandThumb3
                    {
                      OFFSET 2.2474 -0.804199 1.6192
                      CHANNELS 3 Zrotation Xrotation Yrotation
                      End Site
                      {
                        OFFSET 1.6527 -0.5689 1.1317
                      }
                    }
                  }
                }
              }
            }
          }
        }
        JOINT RightShoulder
        {
          OFFSET -2.2086 21.1115 7.2329
          CHANNELS 3 Zrotation Xrotation Yrotation
          JOINT RightArm
          {
            OFFSET -13.1216 3.0287 -4.9007
            CHANNELS 3 Zrotation Xrotation Yrotation
            JOINT RightForeArm
            {
              OFFSET -27.4081 -0.0973053 -0.2375
              CHANNELS 3 Zrotation Xrotation Yrotation
              JOINT RightHand
              {
                OFFSET -22.8641 0.0664063 -0.1369
                CHANNELS 3 Zrotation Xrotation Yrotation
                JOINT RightHandIndex1
                {
                  OFFSET -8.8614 0.774994 2.4612
                  CHANNELS 3 Zrotation Xrotation Yrotation
                  JOINT RightHandIndex2
                  {
                    OFFSET -3.3146 -0.808304 0.5841
                    CHANNELS 3 Zrotation Xrotation Yrotation
                    JOINT RightHandIndex3
                    {
                      OFFSET -2.2628 -0.552002 0.3989
                      CHANNELS 3 Zrotation Xrotation Yrotation
                      End Site
                      {
                        OFFSET -1.6102 -0.4807 0.2612
                      }
                    }
                  }
                }
                JOINT RightHandMiddle1
                {
                  OFFSET -8.9937 0.894989 0.2143
                  CHANNELS 3 Zrotation Xrotation Yrotation
                  JOINT RightHandMiddle2
                  {
                    OFFSET -4.0984 0.0113983 -0.0242
                    CHANNELS 3 Zrotation Xrotation Yrotation
                    JOINT RightHandMiddle3
                    {
                      OFFSET -2.2716 0.00691223 -0.0138001
                      CHANNELS 3 Zrotation Xrotation Yrotation
                      End Site
                      {
                        OFFSET -2.0404 -0.1441 0.0027
                      }
                    }
                  }
                }
                JOINT RightHandRing1
                {
                  OFFSET -8.5234 0.597198 -2.0164
                  CHANNELS 3 Zrotation Xrotation Yrotation
                  JOINT RightHandRing2
                  {
                    OFFSET -3.7188 -0.188309 -0.2328
                    CHANNELS 3 Zrotation Xrotation Yrotation
                    JOINT RightHandRing3
                    {
                      OFFSET -2.1191 -0.106598 -0.1332
                      CHANNELS 3 Zrotation Xrotation Yrotation
                      End Site
                      {
                        OFFSET -1.8737 -0.2304 -0.0886
                      }
                    }
                  }
                }
                JOINT RightHandPinky1
                {
                  OFFSET -7.9094 -0.601105 -3.4825
                  CHANNELS 3 Zrotation Xrotation Yrotation
                  JOINT RightHandPinky2
                  {
                    OFFSET -2.2874 -0.477005 -0.6314
                    CHANNELS 3 Zrotation Xrotation Yrotation
                    JOINT RightHandPinky3
                    {
                      OFFSET -1.6774 -0.349396 -0.4633
                      CHANNELS 3 Zrotation Xrotation Yrotation
                      End Site
                      {
                        OFFSET -1.4888 -0.4091 -0.3416
                      }
                    }
                  }
                }
                JOINT RightHandThumb1
                {
                  OFFSET -1.833 -1.38751 1.3896
                  CHANNELS 3 Zrotation Xrotation Yrotation
                  JOINT RightHandThumb2
                  {
                    OFFSET -3.41299 -1.12099 2.5732
                    CHANNELS 3 Zrotation Xrotation Yrotation
                    JOINT RightHandThumb3
                    {
                      OFFSET -2.24741 -0.804108 1.6192
                      CHANNELS 3 Zrotation Xrotation Yrotation
                      End Site
                      {
                        OFFSET -1.6527 -0.5689 1.1317
                      }
                    }
                  }
                }
              }
            }
          }
        }
      }
    }
  }
  JOINT RightUpLeg
  {
    OFFSET -9.1966 3.8861 -0.7581
    CHANNELS 3 Zrotation Xrotation Yrotation
    JOINT RightLeg
    {
      OFFSET -0.7359 -41.0265 0
      CHANNELS 3 Zrotation Xrotation Yrotation
      JOINT RightFoot
      {
        OFFSET 0 -40.2855 0
        CHANNELS 3 Zrotation Xrotation Yrotation
        JOINT RightToeBase
        {
          OFFSET 0 -5.6122 11.7359
          CHANNELS 3 Zrotation Xrotation Yrotation
          End Site
          {
            OFFSET 0 0 7.8731
          }
        }
      }
    }
  }
  JOINT LeftUpLeg
  {
    OFFSET 9.1965 3.8864 -0.7581
    CHANNELS 3 Zrotation Xrotation Yrotation
    JOINT LeftLeg
    {
      OFFSET 0.7359 -41.0268 0
      CHANNELS 3 Zrotation Xrotation Yrotation
      JOINT LeftFoot
      {
        OFFSET 0 -40.2855 0
        CHANNELS 3 Zrotation Xrotation Yrotation
        JOINT LeftToeBase
        {
          OFFSET 0 -5.6122 11.7359
          CHANNELS 3 Zrotation Xrotation Yrotation
          End Site
          {
            OFFSET 0 0 7.8731
          }
        }
      }
    }
  }
}
MOTION
Frames:	5
Frame Time:	0.0333333
5.84602e-005 68.8428 3.50346 0 0 -0 0 0 -0 0 0 -0 0 0 -0 0 0 -0 0 0 -0 0 0 -0 0 0 -0 0 0 -0 0 0 -0 0 0 -0 0 0 -0 0 0 -0 0 0 -0 -0.0146107 -8.87603e-005 -2.63497e-007 2.99804e-018 -2.42657e-020 -1.42182e-022 0 0 -0 -0.0187562 -0.001176 5.858e-005 5.06224e-018 3.88251e-019 1.21329e-020 0 0 -0 -0.012269 -0.00324817 0.000675346 -1.74678e-018 3.88251e-019 -0 0 0 -0 0 0 -0 0 0 -0 0 0 -0 0 0 -0 0 0 -0 0 0 -0 0 0 -0 0 0 -0 0 0 -0 0 0 -0 0.0149955 -9.10982e-005 2.64101e-007 -9.69331e-018 1.21329e-020 -4.7394e-023 0 0 -0 0.0189956 -0.00119102 -5.96516e-005 -5.41541e-019 0 2.42657e-020 0 0 -0 0.0122698 -0.00324857 -0.000673756 -2.00796e-019 0 -1.94126e-019 0 0 -0 0 0 -0 0 0 -0 3.39842 1.33031 -0.0637918 -5.65207e-008 0.834868 -0.000436188 -3.39935 -2.16518 -0.0642563 -8.89002e-024 -1.18485e-023 -1.48106e-024 -3.39844 1.35642 0.0640283 -3.18788e-007 0.782166 -0.000588827 3.39931 -2.13858 0.0634662 1.1399e-023 0 -0 
20.1663 45.9477 -33.1485 -0.0025415 17.9983 5.99931 -5.76997 13.5231 4.35803 -13.1658 26.4665 10.5797 -13.1658 26.4665 10.5797 -0.00225906 -17.0008 -16.0012 -15.0752 -30.1213 -25.7002 8.99166 -19.3494 -53.9134 -9.36656 -2.09718 -20.9721 -14.5382 -16.2676 -43.9451 -57.6735 -32.9566 -5.81688 2.5446e-007 3.71229e-007 -1.85211e-006 -9.43062e-008 -8.15089e-007 2.2193e-007 2.5446e-007 3.71229e-007 -1.85211e-006 2.5446e-007 3.71229e-007 -1.85211e-006 -0.0145897 -8.91e-005 -1.94819e-006 2.54445e-007 3.71464e-007 -1.85206e-006 2.5446e-007 3.71229e-007 -1.85211e-006 -0.0187759 -0.0011781 5.7815e-005 2.54423e-007 3.71531e-007 -1.85205e-006 2.5446e-007 3.71229e-007 -1.85211e-006 -0.0122468 -0.00324283 0.000675397 2.54398e-007 3.71422e-007 -1.85208e-006 2.5446e-007 3.71229e-007 -1.85211e-006 -9.43062e-008 -8.15089e-007 2.2193e-007 2.5446e-007 3.71229e-007 -1.85211e-006 -4.78999 0.544858 -7.43967 30.3389 -31.4754 60.4145 -28.5912 -12.6721 49.8412 6.99682 -1.49175e-006 4.39506e-007 3.18055e-015 4.77083e-015 -9.54166e-015 -3.18055e-015 1.59028e-015 -1.27222e-014 3.18055e-015 3.18055e-015 -6.36111e-015 3.18055e-015 4.77083e-015 -9.54166e-015 0.0149799 -9.03583e-005 -2.95109e-006 1.05934e-030 -6.36111e-015 9.54166e-015 3.18055e-015 4.77083e-015 -9.54166e-015 0.0190104 -0.00119195 -6.84937e-005 0 3.18055e-015 -0 3.18055e-015 4.77083e-015 -9.54166e-015 0.0122851 -0.00325231 -0.000679296 3.18055e-015 -4.77083e-015 -3.18055e-015 3.18055e-015 4.77083e-015 -9.54166e-015 -3.18055e-015 1.59028e-015 -1.27222e-014 3.18055e-015 3.18055e-015 -6.36111e-015 -32.6271 -54.2872 -37.405 -174.629 37.7659 171.408 6.16475 48.3362 -10.0461 1.38169e-007 7.96149e-008 5.09168e-007 44.9789 -47.7255 47.861 174.954 37.4371 -171.549 4.78592 53.817 9.77447 -1.48273e-006 -3.19535e-007 1.11492e-006 
20.1663 45.9477 -33.1485 -0.0025403 17.9983 5.99931 -5.76843 13.5975 4.3792 -13.1816 26.6117 10.638 -13.1816 26.6117 10.638 -0.0021872 -17.0008 -16.0012 -15.0752 -30.1213 -25.7002 9.01588 -19.7712 -53.5697 -9.36657 -2.09718 -20.9721 -14.8486 -15.9674 -44.9831 -57.2053 -33.459 -5.46512 3.97569e-015 1.59028e-015 3.18055e-015 -8.04441e-008 2.22691e-007 8.14861e-007 1.59028e-015 1.59028e-015 -0 3.97569e-015 1.59028e-015 3.18055e-015 -0.0146025 -8.98554e-005 7.11988e-007 -9.14409e-015 -1.59028e-015 -6.36111e-015 3.97569e-015 1.59028e-015 3.18055e-015 -0.0187295 -0.00117383 6.15675e-005 -1.59028e-015 0 -1.59028e-015 3.97569e-015 1.59028e-015 3.18055e-015 -0.0122724 -0.00324932 0.000677454 -2.38542e-015 0 4.77083e-015 3.97569e-015 1.59028e-015 3.18055e-015 -8.04441e-008 2.22691e-007 8.14861e-007 1.59028e-015 1.59028e-015 -0 -5.19608 0.284083 -7.89464 30.1145 -31.7033 60.6704 -28.0643 -12.2342 50.168 7.22523 -0.0799022 -0.357371 1.50073e-030 -2.70347e-014 3.18055e-015 -3.18055e-015 -2.8625e-014 -9.54166e-015 -5.03185e-030 -3.02153e-014 -9.54166e-015 1.50073e-030 -2.70347e-014 3.18055e-015 0.0150107 -8.97901e-005 4.03663e-006 -1.15094e-006 4.80707e-007 2.82555e-006 1.50073e-030 -2.70347e-014 3.18055e-015 0.0189717 -0.00119014 -6.3828e-005 3.18055e-015 0 6.36111e-015 1.50073e-030 -2.70347e-014 3.18055e-015 0.0123037 -0.0032555 -0.000677728 3.18055e-015 1.11319e-014 3.18055e-015 1.50073e-030 -2.70347e-014 3.18055e-015 -3.18055e-015 -2.8625e-014 -9.54166e-015 -5.03185e-030 -3.02153e-014 -9.54166e-015 -32.6274 -54.2871 -37.4053 -174.629 37.7659 171.408 6.16475 48.3362 -10.0461 5.52675e-008 3.1846e-008 2.03667e-007 44.9785 -47.7257 47.8607 174.954 37.4371 -171.549 4.78594 53.8169 9.77448 1.49423e-007 -1.91023e-007 8.16078e-007 
20.1663 45.9477 -33.1485 -0.00254145 17.9983 5.99931 -5.76678 13.6718 4.40034 -13.1974 26.7569 10.6964 -13.1974 26.7568 10.6964 -0.00226356 -17.0007 -16.0012 -15.0752 -30.1213 -25.7003 9.04289 -20.1929 -53.2248 -9.36655 -2.09717 -20.9721 -15.1532 -15.6615 -46.0192 -56.7305 -33.9592 -5.10619 -3.18055e-015 -1.59028e-015 1.59028e-015 8.08197e-008 -2.23449e-007 -8.1463e-007 -3.97569e-016 -1.59028e-015 -4.77083e-015 -3.18055e-015 -1.59028e-015 1.59028e-015 -0.0146163 -8.84396e-005 -1.81691e-007 -8.34896e-015 9.54166e-015 1.59028e-015 -3.18055e-015 -1.59028e-015 1.59028e-015 -0.0187349 -0.00117532 5.82133e-005 2.38542e-015 0 -1.59028e-015 -3.18055e-015 -1.59028e-015 1.59028e-015 -0.0122641 -0.00324934 0.000675518 4.77083e-015 -1.59028e-015 -4.77083e-015 -3.18055e-015 -1.59028e-015 1.59028e-015 8.08197e-008 -2.23449e-007 -8.1463e-007 -3.97569e-016 -1.59028e-015 -4.77083e-015 -5.60445 0.026435 -8.35168 29.8906 -31.9321 60.9259 -27.5404 -11.7931 50.4903 7.4532 -0.161243 -0.714515 -4.91176e-007 4.43595e-007 1.93317e-007 3.18055e-015 -3.18055e-015 -6.36111e-015 4.91176e-007 -4.43595e-007 -1.93317e-007 -4.91176e-007 4.43595e-007 1.93317e-007 0.0150429 -9.09289e-005 3.62743e-006 9.54166e-015 -6.36111e-015 -1.27222e-014 -4.91176e-007 4.43595e-007 1.93317e-007 0.0189556 -0.00118857 -5.75793e-005 0 0 -3.18055e-015 -4.91176e-007 4.43595e-007 1.93317e-007 0.0123117 -0.00325716 -0.000681415 -4.92862e-007 4.4406e-007 1.93377e-007 -4.91176e-007 4.43595e-007 1.93317e-007 3.18055e-015 -3.18055e-015 -6.36111e-015 4.91176e-007 -4.43595e-007 -1.93317e-007 -32.6281 -54.2869 -37.4059 -174.629 37.7658 171.408 6.16475 48.3363 -10.0461 -3.59239e-007 -2.06999e-007 -1.32384e-006 44.9779 -47.726 47.8603 174.955 37.4372 -171.549 4.78591 53.8169 9.77448 -1.23297e-006 4.28995e-007 1.88538e-006 
20.1663 45.9477 -33.1485 -0.0025415 17.9983 5.99931 -5.76517 13.7462 4.42151 -13.2134 26.9021 10.755 -13.2134 26.9021 10.755 -0.00221827 -17.0008 -16.0012 -15.0752 -30.1213 -25.7003 9.07267 -20.6147 -52.8786 -9.36656 -2.09717 -20.972 -15.452 -15.35 -47.0532 -56.2489 -34.4571 -4.73997 5.56597e-015 0 -1.59028e-015 -8.12004e-008 2.24202e-007 8.14395e-007 7.15625e-015 0 -3.18055e-015 5.56597e-015 0 -1.59028e-015 -0.0146236 -8.73639e-005 -6.57839e-007 -3.18055e-015 -3.18055e-015 -0 5.56597e-015 0 -1.59028e-015 -0.0187645 -0.00117675 6.01574e-005 -7.95139e-016 -1.59028e-015 4.77083e-015 5.56597e-015 0 -1.59028e-015 -0.0122607 -0.00324659 0.000674079 -1.98785e-015 1.59028e-015 1.59028e-015 5.56597e-015 0 -1.59028e-015 -8.12004e-008 2.24202e-007 8.14395e-007 7.15625e-015 0 -3.18055e-015 -6.01506 -0.228041 -8.81077 29.6673 -32.1618 61.1811 -27.0196 -11.3489 50.8081 7.68069 -0.244024 -1.0714 -5.86869e-007 3.8882e-007 1.25665e-007 -8.36381e-008 5.33515e-007 -2.67059e-007 0 0 -3.18055e-015 -5.86869e-007 3.8882e-007 1.25665e-007 0.0150338 -9.21252e-005 6.14309e-006 -5.88932e-007 3.8885e-007 1.25613e-007 -5.86869e-007 3.8882e-007 1.25665e-007 0.0189703 -0.00118788 -5.87451e-005 0 3.18055e-015 -0 -5.86869e-007 3.8882e-007 1.25665e-007 0.012335 -0.00326669 -0.000678061 -5.8856e-007 3.89279e-007 1.25733e-007 -5.86869e-007 3.8882e-007 1.25665e-007 -8.36381e-008 5.33515e-007 -2.67059e-007 0 0 -3.18055e-015 -32.6271 -54.2872 -37.405 -174.629 37.7659 171.408 6.16475 48.3362 -10.0461 1.38169e-007 7.96149e-008 5.09168e-007 44.9789 -47.7255 47.861 174.954 37.4371 -171.549 4.78592 53.817 9.77447 -1.48273e-006 -3.19535e-007 1.11492e-006 
